<svg width="101" height="101" xmlns="http://www.w3.org/2000/svg" xmlns:xlink="http://www.w3.org/1999/xlink" xmlns:svgjs="http://svgjs.com/svgjs" viewBox="247 1474 101 101"><svg width="101" height="101" xmlns="http://www.w3.org/2000/svg" xmlns:xlink="http://www.w3.org/1999/xlink" xmlns:svgjs="http://svgjs.com/svgjs" x="247" y="1474"><svg xmlns="http://www.w3.org/2000/svg" xmlns:xlink="http://www.w3.org/1999/xlink" width="101" height="101"><path paint-order="stroke fill markers" fill-rule="evenodd" d="M2 2h100v100H2V2z"/></svg></svg><svg width="4" height="38" xmlns="http://www.w3.org/2000/svg" xmlns:xlink="http://www.w3.org/1999/xlink" xmlns:svgjs="http://svgjs.com/svgjs" fill="#fff" x="295" y="1519"><svg xmlns="http://www.w3.org/2000/svg" xmlns:xlink="http://www.w3.org/1999/xlink" width="4" height="38"><path paint-order="stroke fill markers" fill-rule="evenodd" d="M1.914 1.325H3.98V38H1.914V1.325z"/></svg></svg><svg width="38" height="36" xmlns="http://www.w3.org/2000/svg" xmlns:xlink="http://www.w3.org/1999/xlink" xmlns:svgjs="http://svgjs.com/svgjs" fill="none" stroke-miterlimit="100" stroke="#fff" stroke-width="3" x="278" y="1486"><svg xmlns="http://www.w3.org/2000/svg" xmlns:xlink="http://www.w3.org/1999/xlink" width="38" height="36"><path paint-order="stroke fill markers" d="M7.047 23.636c2.311-2.278 6.058-2.278 8.37 0a5.776 5.776 0 0 1 0 8.25c-2.312 2.279-6.059 2.279-8.37 0a5.776 5.776 0 0 1 0-8.25zM23.786 7.135c2.31-2.279 6.058-2.279 8.369 0a5.776 5.776 0 0 1 0 8.25c-2.311 2.279-6.058 2.279-8.37 0a5.776 5.776 0 0 1 0-8.25zm-10.1 24.035c0-3.222 2.65-5.834 5.918-5.834 3.269 0 5.918 2.612 5.918 5.834 0 3.222-2.65 5.834-5.918 5.834-3.268 0-5.917-2.612-5.917-5.834zm0-23.336c0-3.222 2.65-5.834 5.918-5.834 3.269 0 5.918 2.612 5.918 5.834 0 3.222-2.65 5.834-5.918 5.834-3.268 0-5.917-2.612-5.917-5.834zm10.1 24.035a5.776 5.776 0 0 1 0-8.25c2.31-2.278 6.058-2.278 8.369 0a5.776 5.776 0 0 1 0 8.25c-2.311 2.279-6.058 2.279-8.37 0zM7.047 15.37a5.776 5.776 0 0 1 0-8.251c2.311-2.279 6.058-2.279 8.37 0a5.776 5.776 0 0 1 0 8.25c-2.312 2.278-6.059 2.278-8.37 0zm24.381 9.955c-3.268 0-5.918-2.612-5.918-5.834 0-3.222 2.65-5.834 5.918-5.834 3.269 0 5.918 2.612 5.918 5.834 0 3.222-2.65 5.834-5.918 5.834zm-23.672 0c-3.268 0-5.918-2.612-5.918-5.834 0-3.222 2.65-5.834 5.918-5.834 3.269 0 5.918 2.612 5.918 5.834 0 3.222-2.65 5.834-5.918 5.834z"/></svg></svg><svg width="24" height="22" xmlns="http://www.w3.org/2000/svg" xmlns:xlink="http://www.w3.org/1999/xlink" xmlns:svgjs="http://svgjs.com/svgjs" fill="none" stroke-miterlimit="100" stroke="#fff" stroke-width="3" x="285" y="1493"><svg xmlns="http://www.w3.org/2000/svg" xmlns:xlink="http://www.w3.org/1999/xlink" width="24" height="22"><path paint-order="stroke fill markers" d="M12.592 1.996c5.88 0 10.647 4.701 10.647 10.5 0 5.8-4.767 10.502-10.647 10.502S1.946 18.297 1.946 12.497 6.712 1.996 12.592 1.996z"/></svg></svg><svg width="17" height="17" xmlns="http://www.w3.org/2000/svg" xmlns:xlink="http://www.w3.org/1999/xlink" xmlns:svgjs="http://svgjs.com/svgjs" fill="none" stroke-miterlimit="100" stroke="#fff" stroke-width="3" x="296" y="1527"><svg xmlns="http://www.w3.org/2000/svg" xmlns:xlink="http://www.w3.org/1999/xlink" width="17" height="17"><path paint-order="stroke fill markers" d="M2.47 16.695l-1.045-1.044L15.37 1.824l1.045 1.045L2.47 16.695z"/></svg></svg><svg width="20" height="21" xmlns="http://www.w3.org/2000/svg" xmlns:xlink="http://www.w3.org/1999/xlink" xmlns:svgjs="http://svgjs.com/svgjs" fill="none" stroke-miterlimit="100" stroke="#fff" stroke-width="3" x="279" y="1523"><svg xmlns="http://www.w3.org/2000/svg" xmlns:xlink="http://www.w3.org/1999/xlink" width="20" height="21"><path paint-order="stroke fill markers" d="M19.631 19.115l-1.045 1.744L1.153 3.576l1.045-1.744L19.63 19.115z"/></svg></svg><svg width="24" height="25" xmlns="http://www.w3.org/2000/svg" xmlns:xlink="http://www.w3.org/1999/xlink" xmlns:svgjs="http://svgjs.com/svgjs" fill="none" stroke-miterlimit="100" stroke="#fff" stroke-width="3" x="302" y="1515"><svg xmlns="http://www.w3.org/2000/svg" xmlns:xlink="http://www.w3.org/1999/xlink" width="24" height="25"><path paint-order="stroke fill markers" d="M24.996 1.947s-.984 14.419-5.24 18.638c-4.254 4.218-10.74 4.629-14.484.916-3.744-3.712-3.33-10.141.925-14.36 4.255-4.218 18.799-5.194 18.799-5.194z"/></svg></svg><svg width="18" height="18" xmlns="http://www.w3.org/2000/svg" xmlns:xlink="http://www.w3.org/1999/xlink" xmlns:svgjs="http://svgjs.com/svgjs" fill="none" stroke-miterlimit="100" stroke="#fff" stroke-width="3" x="276" y="1522"><svg xmlns="http://www.w3.org/2000/svg" width="18" height="18"><path paint-order="stroke fill markers" d="M1.998 1.398s.72 10.51 3.837 13.585c3.117 3.075 7.867 3.374 10.61.668 2.743-2.706 2.44-7.392-.677-10.467S1.998 1.398 1.998 1.398z"/></svg></svg></svg>